<svg xmlns="http://www.w3.org/2000/svg" width="110" height="110" viewBox="0 0 110 110">
    <g fill="none" fill-rule="evenodd">
        <circle cx="55" cy="55" r="55" fill="#FFA74E"/>
        <g fill="#B28B67">
            <path d="M31.843 104.417l9.262-43.167h9.09l6.853 48.479c-.514.014-1.03.021-1.548.021-8.469 0-16.49-1.914-23.657-5.333z"/>
            <path d="M73.2 90.33c-9.361 2.412-45.256-16.048-43.379-42.798 1.877-26.75 39.115-20.866 46.358-7.365 7.244 13.502 6.383 47.75-2.979 50.162z"/>
        </g>
        <path fill="#191847" d="M36.523 77.884c-3.766-16.75-14.492-28.17-12.854-35.657 1.092-4.991 4.003-8.095 8.733-9.312C34.848 23.02 42.737 18.81 56.07 20.288c19.998 2.216 32.204 10.522 26.933 28.797-4.845 0-10.695-1.753-18.784 1.25-2.566.952-4.402 3.907-5.507 8.862h-3.655c-3.547-5.88-7.045-8.042-10.494-6.483-3.448 1.559-4.232 5.345-2.351 11.36l-1.8 13.81h-3.89z"/>
    </g>
</svg>
